<svg id="Archer" xmlns="http://www.w3.org/2000/svg" viewBox="0 0 887.01 553.52"><defs><style>.cls-1{fill:#005524;}.cls-2{fill:#007424;}.cls-3{fill:#6d0015;}.cls-4{fill:none;}</style></defs><title>ArchHelm</title><g id="Archer_Hood" data-name="Archer Hood"><path class="cls-1" d="M479.79,681c76.43-25.38,266.07-15.66,401.71-54.28,134.11-81.4-79.31-245.72-290-409.72H380C173.4,362-32.57,509.26,58.39,622.24,132.12,673.44,311.91,645.48,479.79,681Z" transform="translate(-36.28 -127.48)"/><path class="cls-2" d="M574,188.51C643.18,288,591.47,452.42,517,629.1l-73-3.6c-49.2-157-112.66-319-51-437C450.25,141.68,509.5,125.53,574,188.51Z" transform="translate(-36.28 -127.48)"/><path class="cls-1" d="M444,625.29L517,629l35.76-462.32c-48-55.08-90.23-49.18-128.38-.28Z" transform="translate(-36.28 -127.48)"/><path class="cls-3" d="M529.76,655.62C642.05,592.83,726.5,551,787.51,526.81c59.78-31.75-120.05-161.48-193.56-299.39,177.31,141,417.13,291.28,280.88,386.23C804,633.94,665.54,637.85,529.76,655.62Z" transform="translate(-36.28 -127.48)"/><path class="cls-3" d="M429.4,655.62c-112.29-62.79-196.74-93.11-257.75-117.31-59.78-31.75,116.61-170.63,190.12-308.54C176.5,355.36-51.92,530.21,84.33,625.16,155.2,645.44,293.62,637.85,429.4,655.62Z" transform="translate(-36.28 -127.48)"/><line class="cls-4" x1="450.72" y1="19.63" x2="443.26" y2="460.31"/></g></svg>