<svg id="Archer" xmlns="http://www.w3.org/2000/svg" viewBox="0 0 819.79 814.08"><defs><style>.cls-1{fill:#fff;stroke:#000;stroke-miterlimit:10;stroke-width:1.5px;}.cls-2{fill:#005524;}.cls-3{fill:#7c7c7c;}.cls-4{fill:#aa7d46;}</style></defs><title>ArchCuirass</title><g id="Archer_Cuirass" data-name="Archer Cuirass"><path class="cls-1" d="M204.53,362.08c11.74,137-31.3,220.33,1.93,347,4.93,77.06,26.73,99.47,7.07,161.1C160.25,859.86,125.06,867.4,88.24,848c-10.52-118.8-8.63-274.62,15.86-481.38-6.88-125.26,36.2-194.39,76.71-232.13C210.47,207.79,247,292.12,204.53,362.08Z" transform="translate(-81.42 -56.96)"/><path class="cls-1" d="M768.16,282.63c24,137,44.21,236.06-12,362.76-4.93,77.06-22.94,163.15-3.28,224.78,53.27-10.32,103.63-22.25,140.45-41.7,10.52-118.8,11.73-333.09-12.75-539.85,24-81.77-13.09-124.29-43.47-155.9Z" transform="translate(-81.42 -56.96)"/><path class="cls-2" d="M407.51,104.25c59.34,36.11,141.29,31.84,238.67,0,77.3-3.84,143.18,3.48,190.94,28.48-28.37,107.74-69.76,206.51-34.48,238.44L720.59,785H241.84L204.53,362.18c22.8-43.83,9.71-107.1-23.72-227.68C214.13,100.71,313,103.68,407.51,104.25Z" transform="translate(-81.42 -56.96)"/><path class="cls-3" d="M529,130.53L561.3,78.76c17.79,13.55,29.16,30.89,22.72,54Z" transform="translate(-81.42 -56.96)"/><path class="cls-1" d="M561.3,78.76l98.94-21c11.22,11.85,16,32.78,17.49,58.46-11.08,12.35-44.34,23.54-91.94,34C584,120.16,576.87,95.33,561.3,78.76Z" transform="translate(-81.42 -56.96)"/><path class="cls-3" d="M505.83,133.07L464.17,78.76c-17.79,13.55-29.16,30.89-22.72,54C465,134.6,486.85,135.26,505.83,133.07Z" transform="translate(-81.42 -56.96)"/><path class="cls-1" d="M464.17,78.76l-98.94-21c-11.22,11.85-16,32.78-17.49,58.46,11.08,12.35,44.34,23.54,91.94,34C441.47,120.16,448.6,95.33,464.17,78.76Z" transform="translate(-81.42 -56.96)"/><path class="cls-4" d="M227.44,621.64c-8.31,62.74-3.74,96.79,9.79,110.86C473.69,552.13,672.09,351.37,837.12,132.73c-24.42-15.67-55.19-24.53-92.76-26.12C584,307.2,413.07,482.31,227.44,621.64Z" transform="translate(-81.42 -56.96)"/></g></svg>