<svg id="Bard" xmlns="http://www.w3.org/2000/svg" viewBox="0 0 777 476.73"><defs><style>.cls-1{fill:none;stroke:#cea700;stroke-miterlimit:10;stroke-width:3px;}.cls-2{fill:#cea700;}.cls-3{fill:#6d001b;}.cls-4{fill:#4a001b;}</style></defs><title>BardHelm</title><g id="Bard_Hat" data-name="Bard Hat"><path d="M777,624.16c-199.46-23-394-25.43-582,0a12,12,0,0,1-12-12V443a12,12,0,0,1,12-12c214.77-35.91,411.52-40.65,582,0a12,12,0,0,1,12,12V612.16A12,12,0,0,1,777,624.16Z" transform="translate(-71 -173.36)"/><path class="cls-1" d="M217.65,604.29c187.94-27.48,374.15-30.78,558-1" transform="translate(-71 -173.36)"/><path class="cls-1" d="M221.65,588.26c187.94-27.48,374.15-30.78,558-1" transform="translate(-71 -173.36)"/><path class="cls-1" d="M217.65,491c187.94-27.48,374.15-30.78,558-1" transform="translate(-71 -173.36)"/><path class="cls-1" d="M214.31,476.3c187.94-27.48,374.15-30.78,558-1" transform="translate(-71 -173.36)"/><path class="cls-2" d="M579,558.47c-9.86,0-7.27-6.93-8.81-12.77-3.84-14.59-7.51-18.77-17.72-30.83-9.6-11.34-13.68-18.9-2.18-30.83,6.36-6.59,20.15-12.77,28.71-12.77s22.35,6.18,28.71,12.77c11.5,11.92,7.42,19.49-2.18,30.83-10.21,12.05-13.88,16.24-17.72,30.83C586.27,551.54,588.86,558.47,579,558.47Z" transform="translate(-71 -173.36)"/><path class="cls-2" d="M636.27,478c9.86,0,7.27,6.93,8.81,12.77,3.84,14.59,7.51,18.77,17.72,30.83,9.6,11.34,13.68,18.9,2.18,30.83-6.36,6.59-20.15,12.77-28.71,12.77s-22.35-6.18-28.71-12.77c-11.5-11.92-7.42-19.49,2.18-30.83,10.21-12.05,13.88-16.24,17.72-30.83C629,484.93,626.41,478,636.27,478Z" transform="translate(-71 -173.36)"/><path class="cls-2" d="M468,558.47c-9.86,0-7.27-6.93-8.81-12.77-3.84-14.59-7.51-18.77-17.72-30.83-9.6-11.34-13.68-18.9-2.18-30.83,6.36-6.59,20.15-12.77,28.71-12.77s22.35,6.18,28.71,12.77c11.5,11.92,7.42,19.49-2.18,30.83-10.21,12.05-13.88,16.24-17.72,30.83C475.28,551.54,477.87,558.47,468,558.47Z" transform="translate(-71 -173.36)"/><path class="cls-2" d="M524.51,473.28c9.86,0,7.27,6.93,8.81,12.77,3.84,14.59,7.51,18.77,17.72,30.83,9.6,11.34,13.68,18.9,2.18,30.83-6.36,6.59-20.15,12.77-28.71,12.77s-22.35-6.18-28.71-12.77c-11.5-11.92-7.42-19.49,2.18-30.83,10.21-12.05,13.88-16.24,17.72-30.83C517.24,480.22,514.65,473.28,524.51,473.28Z" transform="translate(-71 -173.36)"/><path class="cls-2" d="M361.15,565c-9.82.86-7.85-6.27-9.89-12-5.1-14.2-9.12-18-20.34-29.16-10.55-10.45-15.28-17.64-4.86-30.52,5.76-7.12,19-14.48,27.48-15.23s22.81,4.21,29.71,10.21c12.5,10.87,9.1,18.77.52,30.9-9.12,12.9-12.41,17.39-15,32.26C367.79,557.48,371,564.16,361.15,565Z" transform="translate(-71 -173.36)"/><path class="cls-2" d="M414.08,478c9.86,0,7.27,6.93,8.81,12.77,3.84,14.59,7.51,18.77,17.72,30.83,9.6,11.34,13.68,18.9,2.18,30.83-6.36,6.59-20.15,12.77-28.71,12.77s-22.35-6.18-28.71-12.77c-11.5-11.92-7.42-19.49,2.18-30.83,10.21-12.05,13.88-16.24,17.72-30.83C406.8,484.93,404.22,478,414.08,478Z" transform="translate(-71 -173.36)"/><path class="cls-2" d="M287.31,487.64c9.72-1.68,8.35,5.59,10.86,11.08,6.27,13.72,10.6,17.22,22.71,27.35,11.39,9.53,16.7,16.3,7.4,30-5.14,7.57-17.68,16-26.11,17.48s-23.08-2.28-30.46-7.69c-13.37-9.79-10.64-17.94-3.11-30.75,8-13.62,10.91-18.37,12.21-33.4C281.33,495.71,277.6,489.32,287.31,487.64Z" transform="translate(-71 -173.36)"/><path class="cls-2" d="M690,569.44c-9.65-1.06-6.37-7.56-7.24-13.44-2.19-14.69-5.49-19.21-14-32.06-8.07-12.17-11.41-20.2,1.51-30.17,7.69-5.93,20.28-10.59,29.14-9.62s20.13,8.26,26.35,15.72c10.45,12.55,5.44,19.65-5.09,29.78C709.51,540.34,705.29,544,700,557.9,697.83,563.44,699.62,570.5,690,569.44Z" transform="translate(-71 -173.36)"/><path class="cls-2" d="M748,491c10.54,0,5.66,6,8,11.6,5.47,13,6.19,16.13,16.09,28,15.92,19.09-1.94,39.6-24.1,39.6s-40-20.51-24.1-39.6c9.9-11.87,10.63-15,16.09-28C742.33,497,737.44,491,748,491Z" transform="translate(-71 -173.36)"/><path class="cls-3" d="M784.23,433.44C823.25,405.5,830.5,361.61,848,328l-50.27-27c0-76.67-57.64-172.93-251.73-104-115.79,17.35-234.17,1.41-341.13,132.78C124.47,380.35,86.41,483.59,71,615q66.67,65.27,112,9.17L437,425Z" transform="translate(-71 -173.36)"/><path class="cls-4" d="M77,605.67L163.67,537,291,506.9l-38,55.77C133,611.67,167.67,687,77,605.67Z" transform="translate(-71 -173.36)"/><path class="cls-4" d="M758.87,423.71l-108.54-1.37-136.67-5.1L604,329.69C723.52,379.87,752.27,302.08,758.87,423.71Z" transform="translate(-71 -173.36)"/></g></svg>