<svg id="Bard" xmlns="http://www.w3.org/2000/svg" viewBox="0 0 704.61 745.83"><defs><style>.cls-1{fill:#9a6f48;}.cls-2{fill:#2a0061;}.cls-2,.cls-3,.cls-5{stroke:#000;stroke-miterlimit:10;}.cls-3,.cls-5{fill:#852100;}.cls-4{fill:#fff20c;}.cls-5{stroke-width:0.89px;}</style></defs><title>BardCuirass</title><g id="Bard_Cuirass" data-name="Bard Cuirass"><path class="cls-1" d="M170.28,886C372.13,818.24,564,875,734.52,870.2c45.36-108.55,26-272.87-3.8-446.2L202,467.51C144,589.73,127.54,727.71,170.28,886Z" transform="translate(-75.46 -163.5)"/><path class="cls-2" d="M389.22,187.2c8.85,22.49,182,20.09,178.15-5.88,0,0,133,16.84,134,20.11S636.08,633.5,636.08,633.5H319L232.61,197.44Z" transform="translate(-75.46 -163.5)"/><path class="cls-2" d="M294.5,391.59c7.83,91.41-22.17,157.41,0,241.91C297.79,684.9,297.14,733.84,284,775c-35.54-6.88-69.13-14.85-93.69-27.82-7-79.25,9.49-217.61,25.83-355.54l14.7-159.37Z" transform="translate(-75.46 -163.5)"/><path class="cls-2" d="M655.34,351.59C647.5,443,677.5,509,655.34,593.5,652,644.9,652.7,693.84,665.82,735c35.54-6.88,69.13-14.85,93.69-27.82,7-79.25-9.49-217.61-25.83-355.54L711.74,210.36Z" transform="translate(-75.46 -163.5)"/><path class="cls-3" d="M558.31,177.14C614.33,212.33,641,300,513.75,296.5,476,292.2,453.5,318.5,410,315.67,336.5,317,293.76,325,254.74,355.57,221.43,397,234.33,540,182.54,626.64,164,664,181.5,809.67,167.77,908l-29.52-42c-18.31-8.82-21.74-22.59-23.25-37-19.3-9.42-18.61-36.1-13.94-66.23C95.58,765.4,86.45,761,76,754c34.33-212.81,62.25-414,114.23-487.31C213,226.84,216.1,189.28,267,187Z" transform="translate(-75.46 -163.5)"/><circle class="cls-4" cx="459.17" cy="68.73" r="23.69"/><path class="cls-5" d="M582.1,266.69c77.13,0,68.71,66.81,135.57,74.31,31.15,4.61.29,286.67,35.67,395.07C756,799.72,728.66,864,734.3,892.5c9.67-3.12,17.42-28.55,19-40.17,18.43-61.07,34.42-265.33,21.74-422.67C759,254.85,717.17,120.32,553,177.14" transform="translate(-75.46 -163.5)"/></g></svg>