<svg id="Warrior" xmlns="http://www.w3.org/2000/svg" viewBox="0 0 750.61 943.84"><defs><style>.cls-1{fill:#a2a3a2;}.cls-2{fill:#915100;}.cls-3{fill:none;stroke:#000;stroke-miterlimit:10;stroke-width:3px;}</style></defs><title>WarWeapon</title><g id="War_Axe" data-name="War Axe"><path class="cls-1" d="M399.09,9.11C348,79,363.5,78.5,291.79,131.64c-56.29,40.12-86.49,23-152.19,84.46-18,109.62,112.44,172.17,172.73,270,54-64.42-24.1-211.31-.24-249,9.21-14.54,45.83-30.75,73.59,6.74l95.55-53Z" transform="translate(-137.92 -9.11)"/><path class="cls-2" d="M385.69,243.84l95.55-53C613.34,576.14,745.83,627,888.53,929.66L848,953C605.87,689.79,567.16,449.38,385.69,243.84Z" transform="translate(-137.92 -9.11)"/><line class="cls-3" x1="265.74" y1="17.89" x2="223.74" y2="152.55"/><line class="cls-3" x1="333.15" y1="159.25" x2="223.74" y2="152.55"/><line class="cls-3" x1="325.74" y1="142.86" x2="247.76" y2="136.55"/><line class="cls-3" x1="278.45" y1="42.55" x2="247.76" y2="136.55"/><line class="cls-3" x1="223.74" y1="152.55" x2="41.84" y2="288.01"/><path d="M149.33,205.23c-6,88.75,72.62,148,125.48,207.36,16.35,18.35,31.3,38,42.51,59.91,0.88,1.72,3.47.2,2.59-1.51-38.36-75.1-118.79-118.69-153.76-195.92-9.92-21.91-15.44-45.72-13.81-69.83,0.13-1.93-2.87-1.92-3,0h0Z" transform="translate(-137.92 -9.11)"/></g></svg>