<svg id="Wizard" xmlns="http://www.w3.org/2000/svg" viewBox="0 0 777.8 835.84"><defs><style>.cls-1,.cls-3,.cls-5{fill:#ffd70c;}.cls-2,.cls-4{fill:#1e0055;stroke:#000;}.cls-2,.cls-3,.cls-4,.cls-5{stroke-miterlimit:10;}.cls-2{stroke-width:1.28px;}.cls-3,.cls-5{stroke:#550002;}.cls-3{stroke-width:6px;}.cls-5{stroke-width:3.88px;}.cls-6{fill:#f4df84;}</style></defs><title>WizCuirass</title><g id="Wiz_Robe" data-name="Wiz Robe"><path class="cls-1" d="M189.35,179.07C125,169.51,110.86,561.16,90.49,903,193.77,922.46,237.7,837.55,276,742.68L256,268.23Z" transform="translate(-90.49 -103.23)"/><path class="cls-2" d="M190.64,149.32c-64.34-9.55-78.49,382.09-98.87,723.94C195.06,892.71,239,807.81,277.26,712.94l-20-474.45Z" transform="translate(-90.49 -103.23)"/><path class="cls-1" d="M769.42,167.43c64.34-9.55,78.49,382.09,98.87,723.94C765,910.82,721.07,825.91,682.81,731l20-474.45Z" transform="translate(-90.49 -103.23)"/><path class="cls-2" d="M768.13,137.68c64.34-9.55,78.49,382.09,98.87,723.94C763.71,881.07,719.78,796.17,681.51,701.3l20-474.45Z" transform="translate(-90.49 -103.23)"/><path class="cls-2" d="M225.38,214.6c10.52,86.82,49.52,181.92,61,273.22C426.52,496.92,557,498.32,666,482.7c12-89.51,67.79-201.72,60.6-260.43Z" transform="translate(-90.49 -103.23)"/><polygon class="cls-3" points="243.59 602.91 368.43 726.93 528.57 615.85 492.5 491.77 266.83 491.77 243.59 602.91"/><polygon class="cls-4" points="243.59 586.55 368.43 711.63 528.57 598.96 492.5 473.27 266.83 473.27 243.59 586.55"/><path class="cls-5" d="M349.33,131.59c78.62,27.51,152.21,21.55,222.43-6.85,80.11-14.06,171.77-23.56,198.55-17.91,12.71,200.55-165.23,273-289.64,387.39C341.07,360.27,179.37,221.82,183.31,117.1,198.06,96.12,280.08,117.91,349.33,131.59Z" transform="translate(-90.49 -103.23)"/><path class="cls-2" d="M365.19,131.59c68.84,27.51,133.27,21.55,194.74-6.85,70.14-14.06,150.21-23.56,173.65-17.91,11.13,200.55-144.48,273-253.41,387.39C358,360.27,216.38,221.82,219.83,117.1,232.74,96.12,304.56,117.91,365.19,131.59Z" transform="translate(-90.49 -103.23)"/><path class="cls-1" d="M284.47,534.55C265.39,659.81,269.8,782.3,290,926.13L382.11,576.8Z" transform="translate(-90.49 -103.23)"/><path class="cls-2" d="M292.78,555.19C267.08,628,276.71,740.32,297,857.79L370.25,588Z" transform="translate(-90.49 -103.23)"/><path class="cls-1" d="M672.07,544.12c23.23,126.13,17.72,251.12-2.45,395L577.48,589.74Z" transform="translate(-90.49 -103.23)"/><path class="cls-2" d="M666.81,568.13c25.71,72.83,16.07,185.13-4.18,302.59L589.34,600.89Z" transform="translate(-90.49 -103.23)"/><path class="cls-6" d="M286.35,487.81c-10.61,32.41,2.33,69.71,23.55,108.73,113.67,13,229.35,12.33,347.46-4.86,17.45-37.46,21.3-73.86,8.62-109A1955.61,1955.61,0,0,1,286.35,487.81Z" transform="translate(-90.49 -103.23)"/><path d="M300.63,507.61a624.91,624.91,0,0,0,265,17.63,618.69,618.69,0,0,0,74.33-15.84,1,1,0,0,0-.52-1.87,622.61,622.61,0,0,1-265,14.68,618.69,618.69,0,0,1-73.24-16.48,1,1,0,0,0-.52,1.87h0Z" transform="translate(-90.49 -103.23)"/><path d="M378.64,550.27a428.42,428.42,0,0,0,209.16,3,422.35,422.35,0,0,0,57.88-18.24c1.15-.45.65-2.33-0.52-1.87a426.74,426.74,0,0,1-206.68,26.7,420.57,420.57,0,0,1-59.32-11.5,1,1,0,0,0-.52,1.87h0Z" transform="translate(-90.49 -103.23)"/><path d="M304.15,555.83a266.25,266.25,0,0,0,98.37,33.52c1.23,0.16,1.22-1.78,0-1.94a263.82,263.82,0,0,1-97.39-33.26,1,1,0,0,0-1,1.68h0Z" transform="translate(-90.49 -103.23)"/><path d="M522.95,584.26a236.69,236.69,0,0,0,143.49-29,1,1,0,0,0-1-1.68,235,235,0,0,1-142.51,28.7c-1.24-.14-1.23,1.8,0,1.94h0Z" transform="translate(-90.49 -103.23)"/></g></svg>