<svg id="Wizard" xmlns="http://www.w3.org/2000/svg" viewBox="0 0 830.38 675.16"><defs><style>.cls-1{fill:#1e0055;stroke:#000;stroke-width:0.99px;}.cls-1,.cls-2,.cls-3{stroke-miterlimit:10;}.cls-2{fill:#ffd70c;stroke:#550002;}.cls-2,.cls-3{stroke-width:4px;}.cls-3{fill:#550002;stroke:#ffd70c;}</style></defs><title>WizWeapon</title><g id="Wiz_Staff" data-name="Wiz Staff"><circle class="cls-1" cx="185.12" cy="242.55" r="100.49" transform="translate(-96.18 -128.06) rotate(-3.07)"/><path class="cls-2" d="M130.67,181.44c35.79,57.5,66.38,121.68,97.1,155C149.11,320,101.25,260.1,85.85,226.83c-3.22,55.05,12.62,101.21,94,141.58,32.35,11.22,55.53,13.59,96.52,2.94L322.9,311C325.39,208.39,280.84,150.69,203.74,141c45,43.89,64.12,85.48,74.22,140.05C241,238.76,189.3,229,130.67,181.44Z" transform="translate(-83.47 -138.31)"/><path class="cls-3" d="M279.72,359L615.83,602.37l296.7,209.47L656.6,587.11,315,318.8C286.55,318.11,277,333.37,279.72,359Z" transform="translate(-83.47 -138.31)"/></g></svg>